PathFileType	4	(X/Y/Z)	59_1_47_p1_0-316_filt_butterworth.trc
DataRate	CameraRate	NumFrames	NumMarkers	Units	OrigDataRate	OrigDataStartFrame	OrigNumFrames
48.0	48.0	5	27	m	48.0	79	316
Frame#	Time	RHip			RKnee			RAnkle			RBigToe			RSmallToe			RHeel			LHip			LKnee			LAnkle			LBigToe			LSmallToe			LHeel			Neck			Head			Nose			RShoulder			RElbow			RWrist			RThumb			RIndex			RPinky			LShoulder			LElbow			LWrist			LThumb			LIndex			LPinky			
		X1	Y1	Z1	X2	Y2	Z2	X3	Y3	Z3	X4	Y4	Z4	X5	Y5	Z5	X6	Y6	Z6	X7	Y7	Z7	X8	Y8	Z8	X9	Y9	Z9	X10	Y10	Z10	X11	Y11	Z11	X12	Y12	Z12	X13	Y13	Z13	X14	Y14	Z14	X15	Y15	Z15	X16	Y16	Z16	X17	Y17	Z17	X18	Y18	Z18	X19	Y19	Z19	X20	Y20	Z20	X21	Y21	Z21	X22	Y22	Z22	X23	Y23	Z23	X24	Y24	Z24	X25	Y25	Z25	X26	Y26	Z26	X27	Y27	Z27	
79	1.6458333333333333	0.34024772524018093	0.45530108536961533	1.0488213771622528	0.30138744700401465	0.5803945546998206	1.4805994520369348	0.3125926368473809	0.7340695088251641	1.9004198125788458	0.27420203235852947	0.5502720220655222	1.9381058972413587	0.3357432865460645	0.5922232248874395	1.9339691787921796	0.29193957785601354	0.8582464061918038	1.972762771952121	0.1276801186045731	0.47020922670036547	1.0431600770515483	0.10727227885336414	0.6340149040602445	1.5151262533034504	0.1040166707185647	0.7442586394705654	1.8793836949689346	0.11392237606580999	0.5722009290646434	1.9360745590293575	0.06844444005299541	0.6235194346761255	1.935244934113341	0.12717189125305264	0.7981276279467684	1.9254802553634058	0.24164675478353523	0.3856950527077147	0.5112817869698454	0.24169273051386342	0.32788528926045796	0.2516126362634178	0.24683858849762613	0.29304224521053857	0.40584103766591	0.38976042610625994	0.3867969261626132	0.5961581864468699	0.42661757020260194	0.23051366731263626	0.824276123606103	0.2620550251682933	0.24099451391222437	0.6964337471076455	0.20930090072831287	0.291244574778005	0.6233773891393777	0.19062968076318298	0.283637595002578	0.62628373087132	0.185128227476543	0.2929304228145384	0.6897080622065195	0.07886012733048477	0.45405352531683785	0.5981119129832616	0.03516520319814475	0.44263761547566927	0.8580762314726299	0.029834952728784996	0.42013180663301447	1.0786797556752097	0.09092508613993153	0.4163669858815777	1.1773759230012695	0.0483950404596352	0.4531303605721224	1.209083813952047	0.00740616872347623	0.40908193823970995	1.1816961902692587
80	1.6666666666666667	0.341936746012825	0.4603353917718313	1.049193294333173	0.3018040112993745	0.5797210556367193	1.4804072676802862	0.31159466906388206	0.7287079082919802	1.8971467915612577	0.27421873620675136	0.5502113761660803	1.9382832202585396	0.33618037681917057	0.5930668299058394	1.9363232246010451	0.29189754714744875	0.8581470295007094	1.9726902076614259	0.1268172310747563	0.46995545017044504	1.0443528529284454	0.10797827153186823	0.6339281812026172	1.5178933265418206	0.10385497599131673	0.7442836288269945	1.8792001736303874	0.11299587381728952	0.5721242083607091	1.935708183164081	0.06842108696554036	0.623622929774889	1.9353638826100084	0.12684092914472953	0.8022634721886184	1.9264844721022332	0.24143350989538948	0.3849007492322828	0.51125578416293	0.2416865184550292	0.32788566889689735	0.25152564318152704	0.2468181972188482	0.29298886636421156	0.4061080239736421	0.3899019737883013	0.3866863577516067	0.5973076309376838	0.42655247994648304	0.23076574447137782	0.8243075954337943	0.2620352019782847	0.24100250486135266	0.6964142292430416	0.2093344557253445	0.2907440290741923	0.6233724638789384	0.19048267813140402	0.2835983998147422	0.6262089663782614	0.1850949902421505	0.2929762510270391	0.6897003423594302	0.07887308004256442	0.4539858162712338	0.5980514172082148	0.0353123252496257	0.44264342329249345	0.8597825421481265	0.029775909736324047	0.4200601297805526	1.0809396159584588	0.09287617102734633	0.41096579061929944	1.1771020006593378	0.050514831685310124	0.4468351396485481	1.2103183520624696	0.007314272929806169	0.4096338420698622	1.1829226592240163
81	1.6875	0.3431889322969429	0.463563422989505	1.0488615904755798	0.30241307219923597	0.5792892268382128	1.4783954001573627	0.31164249662727256	0.7264190022578041	1.8944284103544269	0.2742592615841696	0.5501885275501646	1.9385330533725975	0.33656097195041795	0.5941352750905717	1.9379747861527958	0.29189194634731874	0.8581338382610699	1.9726263065793446	0.1265199851981663	0.4694646452669786	1.0458882439237382	0.1098292081890812	0.6301770329857747	1.5176547665334206	0.1037959399352134	0.7442974700523453	1.8801602134113733	0.11313912897163864	0.572535154894855	1.9360003160601829	0.06836883096550947	0.6237203858465146	1.9355493526866678	0.12698590509807423	0.806214095239276	1.928932460469545	0.241494023369061	0.38507098863826933	0.5112375989927469	0.24168306858788152	0.32782853943019963	0.25138389895723934	0.2467748816923917	0.2929733624553724	0.40604076515116605	0.3901046879404976	0.3874223787318639	0.598847753072993	0.42644502502200843	0.2312642413747308	0.8243809154255094	0.262019343667754	0.24102219637493044	0.6964105538306403	0.20938193950985276	0.2903358916861653	0.6232998873901887	0.1904209312701263	0.2836610343087598	0.6261438760063909	0.18504960421303807	0.29298632919086287	0.6896541381156791	0.07890966334057352	0.4539233840039969	0.5979536701289632	0.03522166386021625	0.44258053273993264	0.862484566884023	0.02975438840269353	0.4198646953417788	1.0824691412485608	0.09413186682454963	0.40738090344392464	1.1775164455510034	0.05225672035955067	0.4431031808921566	1.2114852516402912	0.007056720144777872	0.4104343788917947	1.1854057604275197
82	1.7083333333333333	0.3435185877329612	0.46447311372961475	1.0488992750345612	0.3028184291130129	0.5789161535358363	1.4766394695765204	0.31231457643996385	0.7273544575988958	1.8936129795099834	0.27428523818975226	0.5501889719721819	1.9385659452269413	0.3366277369157052	0.5941604688390273	1.9381640523975805	0.29190660571346794	0.8582424788833533	1.9727270767251568	0.12653884489639017	0.4690543862146031	1.046768291260498	0.11208335810925879	0.6239695526156209	1.515559006661069	0.10435328322238069	0.7427908190532544	1.8815750429625515	0.11475874588839818	0.5720784927032909	1.9362999149184934	0.06842688151852909	0.6235800907690241	1.9352972114243858	0.12751798152084323	0.8059260507777397	1.9317463286411787	0.24156734561295923	0.38525045194230173	0.511238921074986	0.24169390671613686	0.3277300039221726	0.25166920661222275	0.2467711111831075	0.2929057259983981	0.405767191878994	0.3902550493051683	0.3881194344444897	0.5998258269215714	0.42662898593907495	0.2306461372776989	0.8243721241695935	0.2620181356257741	0.24105375017491298	0.6964091239926709	0.20928161806645196	0.29030209248457717	0.6232838479840228	0.1903998480118384	0.283964300767845	0.626150251101018	0.18501134459774893	0.2929331315538913	0.6895968609414037	0.07892037843625958	0.45394843300840876	0.5981506372170518	0.03428855108651826	0.44243062886901036	0.8640973284866503	0.029899907735492857	0.41960657203461194	1.0822883936859118	0.09453061107566209	0.406321786020157	1.1784516904751832	0.05362515189725153	0.4423073128769116	1.2124578273758964	0.006611076325375051	0.4110435732109328	1.1884883384114708
83	1.7291666666666667	0.34324268680150793	0.46503115912548043	1.0501975173087803	0.30281548455521	0.5787227177006691	1.476979843164555	0.313588556610746	0.7320757599080027	1.895408004473721	0.27424605237186395	0.5501923774845926	1.9385143148358788	0.33640144963339086	0.5923881815521764	1.9372481568080686	0.29190725160178593	0.8584766397027956	1.9731981054454395	0.1262724836573101	0.46908735882834496	1.0467525491614984	0.11339482990059797	0.6198448253905087	1.5147716477628879	0.10622879169499183	0.7384130584353237	1.8829023204534472	0.11817651743018665	0.5690897836781715	1.9359934407132828	0.06878518333641062	0.6229561520593715	1.933972403746474	0.1273168220520872	0.80074722530339	1.9340746608675956	0.24158324226343744	0.3852127759859454	0.5112574918527502	0.24173091311495948	0.3277484416650656	0.2528601085496519	0.2468283779351811	0.29272815968192456	0.4050277380987475	0.3903264393031759	0.38830312333993533	0.6000204114883787	0.42750235018625027	0.2271516015134185	0.8240663293632299	0.26202464757340355	0.24110236949679004	0.6963962226933045	0.20907404878218622	0.2905476615598392	0.6234144385102185	0.19039315266034587	0.28439072980659236	0.6262445081216785	0.18500558071798676	0.2928943086848277	0.6895623217819993	0.07884219717963219	0.4541328841673411	0.5990723384344396	0.032853783870394004	0.44244157365504455	0.8642608757250243	0.03011463329851395	0.4194729889769574	1.0814554474940217	0.09473034146161866	0.4061228801801661	1.1792729792420014	0.05414618200523433	0.442304727475869	1.2144077757699954	0.006246020914479818	0.4110598050944128	1.1902853200788404
